TITLE ""
FILE "1Q_t_1701-1709.mp3" MP3
  TRACK 01 AUDIO
    TITLE "1Q_t_1701-1709_01"
    INDEX 01 00:00:00
  TRACK 02 AUDIO
    TITLE "1Q_t_1701-1709_02"
    INDEX 01 00:00:12
  TRACK 03 AUDIO
    TITLE "1Q_t_1701-1709_03"
    INDEX 01 00:01:57
  TRACK 04 AUDIO
    TITLE "1Q_t_1701-1709_04"
    INDEX 01 00:02:37
  TRACK 05 AUDIO
    TITLE "1Q_t_1701-1709_05"
    INDEX 01 00:03:46
  TRACK 06 AUDIO
    TITLE "1Q_t_1701-1709_06"
    INDEX 01 00:04:18
  TRACK 07 AUDIO
    TITLE "1Q_t_1701-1709_07"
    INDEX 01 00:05:47
  TRACK 08 AUDIO
    TITLE "1Q_t_1701-1709_08"
    INDEX 01 00:05:55
  TRACK 09 AUDIO
    TITLE "1Q_t_1701-1709_09"
    INDEX 01 00:07:22
  TRACK 10 AUDIO
    TITLE "1Q_t_1701-1709_10"
    INDEX 01 00:07:32
  TRACK 11 AUDIO
    TITLE "1Q_t_1701-1709_11"
    INDEX 01 00:11:39
  TRACK 12 AUDIO
    TITLE "1Q_t_1701-1709_12"
    INDEX 01 00:12:12
  TRACK 13 AUDIO
    TITLE "1Q_t_1701-1709_13"
    INDEX 01 00:13:34
  TRACK 14 AUDIO
    TITLE "1Q_t_1701-1709_14"
    INDEX 01 00:13:46
  TRACK 15 AUDIO
    TITLE "1Q_t_1701-1709_15"
    INDEX 01 00:18:16
  TRACK 16 AUDIO
    TITLE "1Q_t_1701-1709_16"
    INDEX 01 00:18:24
  TRACK 17 AUDIO
    TITLE "1Q_t_1701-1709_17"
    INDEX 01 00:23:00
  TRACK 18 AUDIO
    TITLE "1Q_t_1701-1709_18"
    INDEX 01 00:23:47
  TRACK 19 AUDIO
    TITLE "1Q_t_1701-1709_19"
    INDEX 01 00:24:62
  TRACK 20 AUDIO
    TITLE "1Q_t_1701-1709_20"
    INDEX 01 00:25:02
  TRACK 21 AUDIO
    TITLE "1Q_t_1701-1709_21"
    INDEX 01 00:28:09
  TRACK 22 AUDIO
    TITLE "1Q_t_1701-1709_22"
    INDEX 01 00:28:16
  TRACK 23 AUDIO
    TITLE "1Q_t_1701-1709_23"
    INDEX 01 00:33:31
  TRACK 24 AUDIO
    TITLE "1Q_t_1701-1709_24"
    INDEX 01 00:34:03
  TRACK 25 AUDIO
    TITLE "1Q_t_1701-1709_25"
    INDEX 01 00:35:15
  TRACK 26 AUDIO
    TITLE "1Q_t_1701-1709_26"
    INDEX 01 00:35:24
  TRACK 27 AUDIO
    TITLE "1Q_t_1701-1709_27"
    INDEX 01 00:38:25
  TRACK 28 AUDIO
    TITLE "1Q_t_1701-1709_28"
    INDEX 01 00:38:34
  TRACK 29 AUDIO
    TITLE "1Q_t_1701-1709_29"
    INDEX 01 00:43:26
  TRACK 30 AUDIO
    TITLE "1Q_t_1701-1709_30"
    INDEX 01 00:44:00
  TRACK 31 AUDIO
    TITLE "1Q_t_1701-1709_31"
    INDEX 01 00:45:13
  TRACK 32 AUDIO
    TITLE "1Q_t_1701-1709_32"
    INDEX 01 00:45:25
  TRACK 33 AUDIO
    TITLE "1Q_t_1701-1709_33"
    INDEX 01 00:49:05
  TRACK 34 AUDIO
    TITLE "1Q_t_1701-1709_34"
    INDEX 01 00:49:15
  TRACK 35 AUDIO
    TITLE "1Q_t_1701-1709_35"
    INDEX 01 00:53:26
  TRACK 36 AUDIO
    TITLE "1Q_t_1701-1709_36"
    INDEX 01 00:53:73
  TRACK 37 AUDIO
    TITLE "1Q_t_1701-1709_37"
    INDEX 01 00:55:00
  TRACK 38 AUDIO
    TITLE "1Q_t_1701-1709_38"
    INDEX 01 00:55:15
  TRACK 39 AUDIO
    TITLE "1Q_t_1701-1709_39"
    INDEX 01 00:56:50
  TRACK 40 AUDIO
    TITLE "1Q_t_1701-1709_40"
    INDEX 01 00:56:60
  TRACK 41 AUDIO
    TITLE "1Q_t_1701-1709_41"
    INDEX 01 01:01:12
  TRACK 42 AUDIO
    TITLE "1Q_t_1701-1709_42"
    INDEX 01 01:01:61
  TRACK 43 AUDIO
    TITLE "1Q_t_1701-1709_43"
    INDEX 01 01:03:01
  TRACK 44 AUDIO
    TITLE "1Q_t_1701-1709_44"
    INDEX 01 01:03:13
  TRACK 45 AUDIO
    TITLE "1Q_t_1701-1709_45"
    INDEX 01 01:04:38
  TRACK 46 AUDIO
    TITLE "1Q_t_1701-1709_46"
    INDEX 01 01:04:46
  TRACK 47 AUDIO
    TITLE "1Q_t_1701-1709_47"
    INDEX 01 01:09:29
  TRACK 48 AUDIO
    TITLE "1Q_t_1701-1709_48"
    INDEX 01 01:10:01
  TRACK 49 AUDIO
    TITLE "1Q_t_1701-1709_49"
    INDEX 01 01:11:01
  TRACK 50 AUDIO
    TITLE "1Q_t_1701-1709_50"
    INDEX 01 01:11:12
  TRACK 51 AUDIO
    TITLE "1Q_t_1701-1709_51"
    INDEX 01 01:13:74
  TRACK 52 AUDIO
    TITLE "1Q_t_1701-1709_52"
    INDEX 01 01:14:09
  TRACK 53 AUDIO
    TITLE "1Q_t_1701-1709_53"
    INDEX 01 01:18:57
  TRACK 54 AUDIO
    TITLE "1Q_t_1701-1709_54"
    INDEX 01 01:19:27
  TRACK 55 AUDIO
    TITLE "1Q_t_1701-1709_55"
    INDEX 01 01:20:60
  TRACK 56 AUDIO
    TITLE "1Q_t_1701-1709_56"
    INDEX 01 01:20:70
  TRACK 57 AUDIO
    TITLE "1Q_t_1701-1709_57"
    INDEX 01 01:22:49
  TRACK 58 AUDIO
    TITLE "1Q_t_1701-1709_58"
    INDEX 01 01:22:57
  TRACK 59 AUDIO
    TITLE "1Q_t_1701-1709_59"
    INDEX 01 01:27:35
